<?xml version="1.0" encoding="UTF-8"?>
<svg xmlns="http://www.w3.org/2000/svg" xmlns:xlink="http://www.w3.org/1999/xlink" width="384pt" height="384pt" viewBox="0 0 512 512" version="1.1">

<path style="fill:#bfbfbf; stroke:#bfbfbf;" d="M16 64L16 72L8 72L8 80L0 80L0 512L512 512L512 456L504 456L504 448L496 448L496 440L151 440L55 440L29 440C24.4271 440 19.2204 440.664 15.0008 438.543C5.68587 433.861 6 424.967 6 416L6 361L6 151L6 103C6 94.461 5.15758 86.2125 13.0154 80.6528C17.2348 77.6674 22.0819 78.0003 27 78L49 78L142 78L496 78L496 72L488 72L488 64L480 64L480 72L472 72L472 64L464 64L464 72L456 72L456 64L448 64L448 72L440 72L440 64L432 64L432 72L424 72L424 64L416 64L416 72L408 72L408 64L400 64L400 72L392 72L392 64L384 64L384 72L376 72L376 64L368 64L368 72L360 72L360 64L352 64L352 72L344 72L344 64L336 64L336 72L328 72L328 64L320 64L320 72L312 72L312 64L304 64L304 72L296 72L296 64L288 64L288 72L280 72L280 64L272 64L272 72L264 72L264 64L256 64L256 72L248 72L248 64L240 64L240 72L232 72L232 64L224 64L224 72L216 72L216 64L208 64L208 72L200 72L200 64L192 64L192 72L184 72L184 64L176 64L176 72L168 72L168 64L160 64L160 72L152 72L152 64L144 64L144 72L136 72L136 64L128 64L128 72L120 72L120 64L112 64L112 72L104 72L104 64L96 64L96 72L88 72L88 64L80 64L80 72L72 72L72 64L64 64L64 72L56 72L56 64L48 64L48 72L40 72L40 64L32 64L32 72L24 72L24 64L16 64z"/>
<path style="fill:#272727; stroke:#272727;" d="M16 78.6528C6.44087 81.6548 6 90.6299 6 99L6 157L6 364L6 414C6 421.347 4.51517 430.088 10.2137 435.786C14.6525 440.225 20.1773 440 26 440L42 440L125 440L389 440L465 440L487 440C490.913 440 495.293 440.499 498.999 438.991C508.188 435.251 508 426.357 508 418L508 361L508 153L508 103C508 95.4058 509.328 86.8991 502.895 81.3943C498.824 77.9105 494.053 78.002 489 78L470 78L385 78L129 78L52 78L29 78C24.8256 78 20.0339 77.3859 16 78.6528z"/>
<path style="fill:#c1c1c1; stroke:#c1c1c1;" d="M415.004 96.7431C401.885 101.756 409.953 122.406 422.985 116.991C424.291 116.448 425.647 115.668 426.606 114.606C429.17 111.765 430.568 107.821 429.563 104.004C428.012 98.1208 420.651 94.585 415.004 96.7431M447.004 96.7431C433.885 101.756 441.953 122.406 454.985 116.991C456.291 116.448 457.647 115.668 458.606 114.606C461.17 111.765 462.568 107.821 461.563 104.004C460.012 98.1209 452.651 94.585 447.004 96.7431z"/>
<path style="fill:#f3f3f3; stroke:#f3f3f3;" d="M23.3179 137.028C19.2857 139.718 21 148.836 21 153L21 200L21 367L21 408C21 412.062 19.4628 420.256 22.6034 423.397C24.6742 425.467 28.3408 424.995 31 425L50 425L128 425L394 425L464 425L482 425C484.67 424.999 488.333 425.54 490.682 423.972C494.714 421.282 493 412.164 493 408L493 361L493 194L493 153C493 148.938 494.537 140.744 491.397 137.603C489.326 135.533 485.659 136.005 483 136L464 136L386 136L120 136L50 136L32 136C29.3296 136.001 25.6668 135.46 23.3179 137.028z"/>
<path style="fill:#414141; stroke:#414141;" d="M54.0586 162.028C48.6021 165.016 49.3325 173.15 55.044 175.397C57.4684 176.35 60.4508 175.999 63 176L79 176C81.8524 175.999 85.3025 176.429 87.8912 174.972C93.323 171.915 92.7786 163.838 86.9807 161.603C84.5363 160.661 81.5655 161.001 79 161L63 161C60.1175 161.001 56.6863 160.589 54.0586 162.028M106.059 162.028C101.389 164.586 101.048 171.169 105.228 174.397C108.397 176.843 116.448 176.911 119.891 174.972C124.438 172.413 125.08 165.766 120.852 162.603C117.591 160.165 109.588 160.095 106.059 162.028M138.059 163.028C132.602 166.016 133.333 174.15 139.044 176.397C141.188 177.24 143.746 176.995 146 177L159 177C161.576 176.995 164.557 177.286 166.891 175.972C172.323 172.915 171.779 164.838 165.981 162.603C163.819 161.77 161.269 162.005 159 162L146 162C143.397 162.005 140.428 161.73 138.059 163.028z"/>
<path style="fill:#5f0161; stroke:#5f0161;" d="M109 183L109 210C109 213.831 108.058 219.202 109.603 222.79C110.736 225.42 113.709 226.86 116.001 228.319L130 237.05L168 260.951C175.163 265.418 182.239 270.652 190 274C184.896 280.52 175.982 284.481 169 288.808L130 313.192L116.001 321.95C113.968 323.235 111.374 324.444 110.028 326.529C107.963 329.726 109 335.368 109 339L109 367C117.659 363.723 125.189 357.316 133 352.424L187 317.424L213 300.656C216.945 298.081 222.515 295.478 225.397 291.674C227.095 289.432 226.981 286.673 226.999 284L227 268C226.999 265.518 227.381 262.53 226.397 260.184C224.997 256.85 220.863 254.892 218 253.003L195 238.192L138 201.308C128.493 195.185 119.235 187.842 109 183z"/>
<path style="fill:#414141; stroke:#414141;" d="M109 218L109 203L64 203C58.6568 203 50.5842 202.593 50.2569 210.001C49.9217 217.589 57.4621 217.997 63 218L109 218M141 203C144.824 206.663 149.55 209.443 154 212.308C157.092 214.298 160.379 216.698 164 217.582C167.796 218.509 172.121 218 176 218L198 218C202.786 218 209.442 219.172 213.956 217.397C217.212 216.116 219.306 212.484 218.638 209.005C217.095 200.962 205.904 203 200 203L141 203M160 257C157.21 252.435 151.475 249.97 147 247.192C144.172 245.436 141.267 242.98 138 242.129C135.749 241.542 133.294 241.945 131 241.986L117 242L79 242C71.893 242 64.0248 241.048 57.0008 242.148C53.7744 242.653 51.0066 244.644 50.3619 248.005C49.6102 251.923 52.2555 255.709 56.0154 256.682C61.7547 258.168 69.091 257 75 257L160 257M183 281C179.565 279.559 175.702 280 172 280L152 280L80 280L64 280C61.4201 280 58.527 279.673 56.0046 280.318C52.8413 281.126 50.4052 283.646 50.2569 287.001C50.0969 290.622 52.5632 293.789 56.0154 294.682C58.8281 295.41 62.1197 295 65 295L83 295L135 295L150 295C153.288 295 156.812 295.312 160 294.351C163.278 293.364 166.127 291.212 169 289.424L183 281M227 280C226.999 286.106 226.964 289.909 222 294C227.462 296.292 235.113 295 241 295L281 294.995C286.388 294.894 292.688 291.561 290.381 285.019C288.073 278.472 279.423 280 274 280L227 280M54.0586 317.028C48.6022 320.016 49.3325 328.15 55.044 330.397C58.2754 331.668 62.5941 331 66 331L90 331C93.689 331 98.649 331.807 101.772 329.397C106.792 325.521 104.988 317.849 98.9954 316.318C95.5795 315.445 91.5003 316 88 316L67 316C63.0718 316 57.6296 315.072 54.0586 317.028M166 330C171.216 332.189 178.381 331 184 331L222 331C227.701 331 236.1 331.081 235.743 323.001C235.344 313.961 223.029 316 217 316L199 316C195.424 316 191.444 315.554 188 316.702C180.021 319.362 173.611 326.399 166 330M109 367L109 355L85 355L65 355C61.8561 355 58.0112 354.45 55.0193 355.603C49.6336 357.679 48.6519 364.863 53.2284 368.397C55.9315 370.484 59.7997 369.999 63 370L83 370L164 370L186 370C189.2 369.999 193.068 370.484 195.772 368.397C199.952 365.169 199.611 358.586 194.941 356.028C192.842 354.878 190.312 355.017 188 355.001L177 355L144 355C138.957 355 132.842 354.088 128 355.702C121.269 357.946 115.206 363.558 109 367z"/>
<path style="fill:#5f0161; stroke:#5f0161;" d="M309 357L309 390L455 390L455 357L309 357z"/>
<path style="fill:#414141; stroke:#414141;" d="M54.0586 392.028C48.1139 395.284 49.6905 404.045 56.0154 405.682C60.8824 406.942 66.9952 406 72 406L105 406C109.787 406 117.75 407.502 121.772 404.397C126.791 400.521 124.988 392.849 118.995 391.318C114.112 390.07 108.018 391 103 391L72 391L61 391.001C58.6875 391.017 56.1583 390.878 54.0586 392.028z"/>
</svg>
